<?xml version="1.0" standalone="no"?>
<!DOCTYPE svg PUBLIC "-//W3C//DTD SVG 20010904//EN"
 "http://www.w3.org/TR/2001/REC-SVG-20010904/DTD/svg10.dtd">
<svg version="1.0" xmlns="http://www.w3.org/2000/svg"
 width="512.000000pt" height="512.000000pt" viewBox="0 0 512.000000 512.000000"
 preserveAspectRatio="xMidYMid meet">
<metadata>
Created by potrace 1.14, written by Peter Selinger 2001-2017
</metadata>
<g transform="translate(0.000000,512.000000) scale(0.100000,-0.100000)"
fill="#000000" stroke="none">
<path d="M2475 4842 c-22 -15 -50 -46 -62 -71 -21 -41 -22 -54 -20 -282 1
-131 0 -239 -3 -240 -3 0 -77 -1 -165 -2 l-160 -2 0 -290 0 -290 -75 -49 c-41
-27 -114 -87 -161 -135 -80 -80 -169 -196 -169 -220 0 -14 33 -13 -335 -14
l-320 -2 -2 -60 c-1 -33 -2 -106 -2 -162 l-1 -101 -210 0 c-115 -1 -220 -4
-232 -8 -115 -35 -154 -188 -72 -280 46 -51 73 -56 301 -57 l213 -1 1 -25 c0
-14 0 -89 0 -166 l0 -140 322 1 322 1 45 -70 c43 -67 229 -267 249 -267 5 0
16 -6 23 -14 8 -7 28 -21 45 -29 62 -33 58 26 57 -830 l0 -787 498 0 c391 0
498 3 499 13 0 6 1 363 1 792 l1 780 65 40 c86 53 235 200 301 298 l52 78 297
-1 c163 -1 308 -1 322 -1 l25 1 0 164 -1 165 226 3 c215 3 226 4 257 26 89 64
103 177 31 254 -52 54 -73 59 -304 61 l-209 2 -1 150 c-1 83 -2 155 -3 161 -1
7 -101 10 -317 10 -174 -1 -320 1 -324 4 -4 3 -31 39 -59 82 -66 98 -185 217
-282 280 l-76 50 -1 251 c0 139 -1 271 -1 293 l-1 41 -152 -1 c-84 -1 -158 -1
-163 1 -7 2 -10 81 -10 231 1 242 -3 281 -32 321 -36 47 -69 64 -130 67 -49 2
-64 -1 -98 -24z"/>
<path d="M1101 4278 c-75 -37 -109 -128 -77 -211 21 -55 338 -365 391 -384 81
-28 170 11 206 91 43 95 28 123 -169 326 -92 95 -181 179 -199 186 -47 20
-102 17 -152 -8z"/>
<path d="M3874 4284 c-32 -13 -340 -328 -362 -371 -18 -33 -17 -114 1 -150 17
-31 51 -65 83 -81 27 -14 103 -8 137 10 40 21 343 321 363 359 72 139 -74 293
-222 233z"/>
<path d="M1390 1799 c-19 -12 -82 -68 -140 -124 -58 -56 -123 -120 -145 -141
-62 -60 -85 -99 -91 -151 -15 -129 127 -224 244 -164 45 23 336 310 358 353
22 42 25 106 8 148 -37 87 -154 127 -234 79z"/>
<path d="M3598 1806 c-63 -23 -102 -84 -101 -157 1 -63 24 -97 173 -247 83
-83 164 -160 180 -172 57 -40 154 -35 210 12 46 39 66 129 41 190 -12 31 -322
342 -361 362 -40 22 -102 27 -142 12z"/>
</g>
</svg>
