<svg width="34" height="37" viewBox="0 0 34 37" fill="none" xmlns="http://www.w3.org/2000/svg">
<path d="M0 16.984C0 16.6002 0.12806 16.2643 0.400188 15.9925C0.672316 15.7366 1.00847 15.6087 1.36064 15.6087H4.62618C4.99435 15.6087 5.29849 15.7366 5.55461 16.0085C5.79473 16.2803 5.92279 16.6002 5.92279 16.984C5.92279 17.3678 5.81073 17.6877 5.57062 17.9595C5.33051 18.2314 5.01036 18.3594 4.64218 18.3594H1.37665C1.00847 18.3594 0.688324 18.2314 0.416196 17.9595C0.144068 17.6877 0 17.3678 0 16.984ZM4.57815 28.0668C4.57815 27.699 4.70621 27.3791 4.94633 27.0913L7.29944 24.8043C7.53955 24.5484 7.8597 24.4365 8.24388 24.4365C8.62806 24.4365 8.94821 24.5644 9.20433 24.8043C9.46045 25.0442 9.58851 25.3481 9.58851 25.7159C9.58851 26.0997 9.46045 26.4515 9.20433 26.7394L6.93126 29.0103C6.27495 29.5221 5.61864 29.5221 4.96233 29.0103C4.70621 28.7545 4.57815 28.4346 4.57815 28.0668ZM4.57815 5.93321C4.57815 5.56538 4.70621 5.24553 4.94633 4.95767C5.26648 4.68579 5.60264 4.55785 5.97081 4.55785C6.32298 4.55785 6.64313 4.68579 6.91525 4.94167L9.20433 7.29257C9.46045 7.53246 9.58851 7.8523 9.58851 8.23612C9.58851 8.61994 9.46045 8.93979 9.20433 9.19567C8.94821 9.45155 8.62806 9.57949 8.24388 9.57949C7.8597 9.57949 7.53955 9.45155 7.29944 9.19567L4.96233 6.90875C4.70621 6.65287 4.57815 6.31703 4.57815 5.93321ZM8.66007 16.984C8.66007 15.4967 9.02825 14.1054 9.7806 12.826C10.533 11.5466 11.5414 10.523 12.838 9.7714C14.1347 9.01975 15.5113 8.65193 17 8.65193C18.1205 8.65193 19.193 8.87582 20.2335 9.32361C21.258 9.7714 22.1544 10.3631 22.8908 11.1148C23.6431 11.8664 24.2354 12.746 24.6676 13.7695C25.0998 14.793 25.3239 15.8805 25.3239 17C25.3239 18.5033 24.9557 19.8946 24.2034 21.174C23.451 22.4534 22.4426 23.461 21.162 24.2126C19.8814 24.9643 18.4887 25.3321 16.984 25.3321C15.4793 25.3321 14.0866 24.9643 12.806 24.2126C11.5254 23.461 10.5169 22.4534 9.7646 21.174C9.04426 19.8786 8.66007 18.4873 8.66007 16.984ZM11.3814 16.984C11.3814 18.5513 11.9256 19.8786 13.0301 20.9821C14.1186 22.0856 15.4473 22.6453 17.016 22.6453C18.5847 22.6453 19.9134 22.0856 21.0179 20.9821C22.1224 19.8786 22.6827 18.5513 22.6827 16.984C22.6827 15.4487 22.1224 14.1373 21.0179 13.0339C19.9134 11.9464 18.5847 11.4026 17.016 11.4026C15.4633 11.4026 14.1347 11.9464 13.0461 13.0339C11.9256 14.1373 11.3814 15.4487 11.3814 16.984ZM15.6394 29.4262C15.6394 29.0423 15.7674 28.7225 16.0395 28.4666C16.3117 28.2107 16.6318 28.0828 17 28.0828C17.3842 28.0828 17.7203 28.2107 17.9765 28.4666C18.2326 28.7225 18.3606 29.0423 18.3606 29.4262V32.6087C18.3606 32.9925 18.2326 33.3283 17.9605 33.6002C17.6883 33.8721 17.3682 34 17 34C16.6318 34 16.2957 33.8721 16.0395 33.6002C15.7674 33.3283 15.6394 32.9925 15.6394 32.6087V29.4262ZM15.6394 4.63782V1.37535C15.6394 1.00753 15.7674 0.687677 16.0395 0.415805C16.3117 0.143933 16.6318 0 17.016 0C17.4002 0 17.7043 0.12794 17.9765 0.399812C18.2486 0.671684 18.3766 0.991533 18.3766 1.35936V4.63782C18.3766 5.00564 18.2486 5.3095 17.9765 5.56538C17.7043 5.82126 17.3842 5.93321 17.016 5.93321C16.6478 5.93321 16.3117 5.80527 16.0556 5.56538C15.7994 5.32549 15.6394 5.00564 15.6394 4.63782ZM24.4755 25.7159C24.4755 25.3481 24.6036 25.0442 24.8437 24.8203C25.0838 24.5644 25.3879 24.4525 25.7401 24.4525C26.1243 24.4525 26.4444 24.5804 26.7006 24.8203L29.0377 27.1072C29.2938 27.3791 29.4218 27.715 29.4218 28.0828C29.4218 28.4506 29.2938 28.7705 29.0377 29.0263C28.3974 29.5221 27.7571 29.5221 27.1168 29.0263L24.8437 26.7554C24.6036 26.4675 24.4755 26.1317 24.4755 25.7159ZM24.4755 8.25212C24.4755 7.8523 24.6036 7.53245 24.8437 7.30856L27.1168 4.95767C27.3889 4.70179 27.709 4.57385 28.0612 4.57385C28.4454 4.57385 28.7655 4.70179 29.0217 4.97366C29.2938 5.24553 29.4218 5.56538 29.4218 5.93321C29.4218 6.33302 29.2938 6.66886 29.0377 6.92474L26.7006 9.21167C26.4124 9.46754 26.0923 9.59548 25.7401 9.59548C25.3719 9.59548 25.0838 9.46754 24.8437 9.21167C24.6036 8.95579 24.4755 8.63594 24.4755 8.25212ZM28.0932 16.984C28.0932 16.6002 28.2213 16.2803 28.4774 15.9925C28.7335 15.7366 29.0377 15.6087 29.3898 15.6087H32.6234C32.9915 15.6087 33.3117 15.7526 33.5838 16.0245C33.8559 16.2963 34 16.6162 34 16.984C34 17.3518 33.8559 17.6717 33.5838 17.9436C33.3117 18.2154 32.9915 18.3434 32.6234 18.3434H29.3898C29.0217 18.3434 28.7015 18.2154 28.4614 17.9436C28.2213 17.6717 28.0932 17.3678 28.0932 16.984Z" fill="#FF912C"/>
<path d="M13 5H21V13H29.5V21H21V37H13V21H4.5V13H13V5Z" fill="#8F451B"/>
</svg>
